# xmcd
# 
# Track frame offsets:
#     150
#     22040
#     47446
#     64440
#     85065
#     103420
#     121903
#     150889
#     172043
#     192738
#     210322
#     237543
# 
# Disc length: 3342
# 
# Revision: 1
# Processed by: cddbd v1.5.2PL0 Copyright (c) Steve Scherf et al.
# Submitted via: fre:ac v1.0.27
# 
DISCID=a40d0c0c
DTITLE=Boubacar Traoré - Mbalimaou
DYEAR=2014
DGENRE=World
TTITLE0=Dounia Djanjo
TTITLE1=Hona
TTITLE2=Sagnon Moni
TTITLE3=Bembalisso
TTITLE4=Mbalimaou
TTITLE5=Mariama
TTITLE6=Bougoudani
TTITLE7=Kolo Tigi
TTITLE8=Saya Temokoto
TTITLE9=Fogniana Kouma
TTITLE10=Africa
TTITLE11=Sina Mousso Djougou
EXTD=
EXTT0=
EXTT1=
EXTT2=
EXTT3=
EXTT4=
EXTT5=
EXTT6=
EXTT7=
EXTT8=
EXTT9=
EXTT10=
EXTT11=
PLAYORDER=
